<?xml version="1.0" standalone="no"?>
<!DOCTYPE svg PUBLIC "-//W3C//DTD SVG 20010904//EN"
 "http://www.w3.org/TR/2001/REC-SVG-20010904/DTD/svg10.dtd">
<svg version="1.0" xmlns="http://www.w3.org/2000/svg"
 width="436.000000pt" height="155.000000pt" viewBox="0 0 436.000000 155.000000"
 preserveAspectRatio="xMidYMid meet">

<g transform="translate(0.000000,155.000000) scale(0.100000,-0.100000)"
fill="#000000" stroke="none">
<path d="M2843 1415 c-85 -37 -194 -180 -287 -376 -52 -110 -146 -368 -146
-401 0 -22 -9 -27 -64 -34 l-46 -7 0 49 c-1 63 -29 125 -71 155 -48 34 -164
34 -229 0 -69 -36 -107 -68 -147 -125 -46 -65 -60 -76 -95 -76 -25 0 -28 4
-28 33 0 85 -50 166 -117 188 -46 15 -128 6 -187 -19 -56 -25 -139 -102 -173
-160 -60 -102 -79 -232 -44 -307 36 -79 100 -112 200 -103 90 9 193 82 249
178 31 54 38 60 77 60 30 0 30 -1 32 -55 7 -203 237 -252 402 -87 27 27 59 68
70 90 21 42 30 47 99 55 30 3 33 2 28 -17 -4 -12 -9 -57 -13 -102 -7 -102 3
-124 55 -124 51 0 73 22 124 123 102 204 239 351 284 305 12 -12 13 -20 4 -44
-17 -44 -49 -74 -107 -100 -60 -27 -84 -57 -90 -117 -3 -31 2 -54 19 -86 32
-62 75 -83 155 -79 53 3 67 8 93 33 24 23 30 37 28 60 -3 26 -9 32 -49 45 -92
30 -103 63 -33 99 92 49 164 159 164 253 0 53 -41 97 -97 105 -84 11 -217 -82
-314 -221 -54 -76 -55 -76 -35 1 13 47 26 64 126 160 183 175 284 316 324 452
28 96 15 175 -33 201 -27 14 -90 12 -128 -5z m43 -130 c15 -60 -39 -185 -135
-311 -58 -77 -131 -155 -131 -141 0 4 21 60 46 125 77 196 167 352 203 352 6
0 13 -11 17 -25z m-1374 -655 c-4 -63 -2 -74 21 -109 l26 -39 -28 -44 c-32
-50 -89 -83 -127 -74 -13 4 -31 20 -40 38 -42 80 34 262 119 287 18 5 33 10
33 10 1 1 -1 -30 -4 -69z m572 7 c-6 -52 5 -94 38 -139 10 -13 7 -24 -15 -57
-30 -44 -58 -66 -99 -76 -21 -5 -33 -1 -52 19 -33 32 -35 101 -6 180 23 59 86
126 120 126 18 0 20 -5 14 -53z"/>
<path d="M795 1324 c-11 -3 -55 -11 -97 -20 -161 -31 -325 -99 -372 -155 -21
-24 -26 -40 -24 -68 4 -51 29 -51 136 -2 171 78 364 118 522 108 100 -6 160
-28 195 -69 31 -37 32 -71 3 -128 -43 -84 -155 -142 -306 -156 -81 -8 -107
-22 -122 -69 -15 -45 -7 -65 24 -65 59 0 131 -23 159 -52 26 -26 29 -34 24
-73 -13 -123 -151 -195 -374 -195 -82 0 -103 3 -103 14 0 38 118 343 198 509
67 143 66 152 -26 152 -88 0 -87 1 -199 -250 -76 -172 -203 -537 -203 -587 0
-27 29 -48 66 -48 45 0 100 23 113 48 9 17 25 20 153 25 215 8 353 52 458 145
95 84 137 220 88 292 -13 19 -38 42 -55 50 -42 19 -41 26 1 34 59 11 173 75
222 124 64 64 94 130 94 210 0 36 -6 75 -14 91 -23 43 -78 87 -143 112 -51 20
-78 23 -228 25 -93 2 -179 1 -190 -2z"/>
<path d="M3604 1091 c-44 -27 -64 -59 -64 -103 0 -62 51 -89 128 -68 85 22
136 135 80 174 -31 22 -106 20 -144 -3z"/>
<path d="M3530 817 c-16 -8 -41 -43 -71 -104 -118 -236 -141 -425 -59 -468 60
-31 157 -10 237 51 l32 25 40 -40 c88 -88 253 -61 365 59 113 121 157 316 93
412 -74 111 -260 98 -383 -28 -53 -55 -111 -169 -120 -235 -6 -44 -11 -53 -55
-85 -63 -46 -93 -44 -97 8 -2 28 14 81 62 202 36 90 66 170 66 178 0 36 -60
50 -110 25z m485 -147 c41 -45 9 -199 -55 -262 -67 -68 -140 -45 -140 43 0 50
32 151 60 186 42 54 102 69 135 33z"/>
<path d="M3068 445 c-66 -36 -97 -157 -49 -196 32 -26 103 -25 149 3 63 39 93
147 52 188 -24 24 -111 27 -152 5z"/>
</g>
</svg>
